<svg width="512" height="512" viewBox="0 0 512 512" fill="none" xmlns="http://www.w3.org/2000/svg">
<rect width="512" height="512" rx="60" fill="url(#paint0_linear_5_8)"/>
<path d="M97.7125 153.128C147.249 153.128 172.017 186.248 172.017 252.488C172.017 281.864 165.489 306.248 152.433 325.64C146.097 335.24 137.553 342.824 126.801 348.392C116.241 353.768 104.145 356.456 90.5125 356.456C68.8165 356.456 52.9765 354.248 42.9925 349.832L43.8565 156.584C59.6005 154.28 77.5525 153.128 97.7125 153.128ZM87.6325 337.736C108.945 337.736 124.497 329.768 134.289 313.832C144.081 297.704 148.977 276.968 148.977 251.624C148.977 198.44 129.585 171.848 90.8005 171.848L65.4565 173V336.296C70.8325 337.256 78.2245 337.736 87.6325 337.736ZM217.802 237.512C217.802 228.296 216.65 221.48 214.346 217.064L230.762 214.184C234.026 214.952 236.042 216.872 236.81 219.944C237.77 223.016 238.25 226.184 238.25 229.448C238.25 231.752 237.866 244.808 237.098 268.616C236.33 292.424 235.946 305 235.946 306.344C235.946 316.52 237.386 324.68 240.266 330.824C243.146 336.968 248.618 340.04 256.682 340.04C264.746 340.04 271.37 337.352 276.554 331.976C281.738 326.6 285.866 319.592 288.938 310.952C295.082 293.288 298.154 274.184 298.154 253.64V217.64H317.45L317.738 344.36C317.738 368.744 313.226 387.752 304.202 401.384C295.37 415.208 280.394 422.12 259.274 422.12C251.594 422.12 243.722 420.68 235.658 417.8C227.594 415.112 221.162 411.272 216.362 406.28L219.53 395.048C230.666 402.344 243.626 405.992 258.41 405.992C273.386 405.992 283.658 400.712 289.226 390.152C294.986 379.784 297.866 364.52 297.866 344.36C297.866 333.224 298.538 324.68 299.882 318.728H298.154C291.05 343.88 275.786 356.456 252.362 356.456C237.578 356.456 227.69 352.712 222.698 345.224C217.706 337.736 215.21 326.888 215.21 312.68C215.21 311.144 215.594 298.568 216.362 274.952C217.322 251.336 217.802 238.856 217.802 237.512ZM390.118 223.4C390.118 233.576 389.35 242.12 387.814 249.032H389.542C392.23 238.28 397.414 229.832 405.094 223.688C412.966 217.352 422.47 214.184 433.606 214.184C448.774 214.184 459.238 218.024 464.998 225.704C470.758 233.192 473.638 244.52 473.638 259.688C473.638 260.264 473.446 270.056 473.062 289.064C472.87 308.072 472.774 320.168 472.774 325.352C472.774 330.536 473.35 334.376 474.502 336.872C475.846 339.368 479.974 340.616 486.886 340.616L487.462 353.576C484.774 354.728 480.838 355.304 475.654 355.304C466.438 355.304 460.102 353.192 456.646 348.968C453.382 344.744 451.75 338.024 451.75 328.808C451.75 328.424 451.942 318.056 452.326 297.704C452.71 277.352 452.902 266.792 452.902 266.024C452.902 254.888 451.462 246.248 448.582 240.104C445.702 233.768 439.942 230.6 431.302 230.6C422.854 230.6 415.75 233.288 409.99 238.664C404.422 244.04 400.198 251.048 397.318 259.688C392.134 276.392 389.542 294.152 389.542 312.968V353H369.67V217.64L390.118 215.048V223.4Z" fill="#2F2F2F"/>
<defs>
<linearGradient id="paint0_linear_5_8" x1="0" y1="0" x2="512" y2="512" gradientUnits="userSpaceOnUse">
<stop stop-color="#62C6FF"/>
<stop offset="1" stop-color="#2C5AFF"/>
</linearGradient>
</defs>
</svg>
